<svg width="13" height="13" viewBox="0 0 13 13" fill="none" xmlns="http://www.w3.org/2000/svg">
<g clip-path="url(#clip0_2_4912)">
<path d="M6.80957 5.68677C7.37373 5.68677 7.83106 5.22944 7.83106 4.66529C7.83106 4.10113 7.37373 3.6438 6.80957 3.6438C6.24542 3.6438 5.78809 4.10113 5.78809 4.66529C5.78809 5.22944 6.24542 5.68677 6.80957 5.68677Z" fill="#868686"/>
<path d="M12.6311 7.91818C12.0658 10.5661 9.48732 12.4504 6.80963 12.4504C6.05591 12.4504 5.83773 12.0438 5.83773 11.5579C5.83773 11.2603 5.83773 10.8636 5.83773 10.3678C5.83773 9.17769 5.83773 7.78926 5.83773 7.29339C5.83773 6.56942 6.28401 6.24215 6.81955 6.24215C7.41459 6.24215 7.78153 6.57934 7.77162 7.29339C7.80137 7.9876 7.80137 9.27686 7.80137 10.4174C8.39641 10.2686 8.99145 9.97107 9.38815 9.56446C10.2807 8.88017 10.8757 7.69008 10.8559 6.45041C10.846 5.70661 10.6774 4.91322 10.2212 4.30826C9.1898 2.92975 8.39641 2.53306 6.80963 2.48347C5.61955 2.43388 4.46914 3.01901 3.73525 3.91157C2.84269 5.11157 2.69393 6.2124 2.94186 7.39256C3.16005 8.3843 3.73525 9.17769 4.52864 9.77273C5.22286 10.2686 5.12368 10.7645 4.82616 11.1612C4.23112 12.0537 3.43773 11.4587 2.94186 11.0124C1.85096 10.1198 1.15674 8.83058 0.958394 7.44215C0.660873 5.16116 1.35509 3.37603 2.94186 1.9876C3.33856 1.59091 3.83443 1.29339 4.33029 1.04545C5.12368 0.698347 5.91707 0.5 6.80963 0.5C9.09063 0.549587 10.4791 1.54132 11.5303 2.78099C12.76 4.41736 13.0576 6.10331 12.6311 7.93802V7.91818Z" fill="#868686"/>
</g>
<defs>
<clipPath id="clip0_2_4912">
<rect width="12" height="12" fill="white" transform="translate(0.859375 0.5)"/>
</clipPath>
</defs>
</svg>
