<svg width="14" height="14" viewBox="0 0 14 14" fill="none" xmlns="http://www.w3.org/2000/svg">
<g clip-path="url(#clip0_2_24)">
<path d="M9.893 12.2785L7.3465 9.732C7.95495 9.00062 8.28649 8.07838 8.283 7.127C8.2535 4.8735 6.41 3 4.127 3C1.844 3 0 4.873 0 7.127C0 9.381 1.844 11.283 4.127 11.283C5.1515 11.283 6.0585 10.9025 6.7905 10.317L9.337 12.8635C9.37037 12.9003 9.41104 12.9296 9.45641 12.9498C9.50179 12.9699 9.55086 12.9804 9.6005 12.9805C9.6885 12.9805 9.8055 12.951 9.864 12.8635C10.0395 12.688 10.0395 12.4245 9.8935 12.278L9.893 12.2785ZM0.7905 7.127C0.790303 6.68879 0.876469 6.25484 1.04407 5.84994C1.21168 5.44505 1.45744 5.07716 1.7673 4.7673C2.07716 4.45744 2.44505 4.21168 2.84994 4.04407C3.25484 3.87647 3.68879 3.7903 4.127 3.7905C4.56521 3.7903 4.99916 3.87647 5.40406 4.04407C5.80895 4.21168 6.17684 4.45744 6.4867 4.7673C6.79656 5.07716 7.04232 5.44505 7.20993 5.84994C7.37753 6.25484 7.4637 6.68879 7.4635 7.127C7.4635 8.971 5.971 10.493 4.127 10.493C2.283 10.493 0.7905 9.0005 0.7905 7.127Z" fill="#767676"/>
</g>
<defs>
<clipPath id="clip0_2_24">
<rect width="10" height="10" fill="white" transform="translate(0 3)"/>
</clipPath>
</defs>
</svg>
